<svg width="102" height="12" viewBox="0 0 102 12" fill="none" xmlns="http://www.w3.org/2000/svg">
<path d="M0.852 9V0.995999H6.336V2.496H2.796V4.236H5.868V5.748H2.796V7.5H6.336V9H0.852ZM10.9053 6.576L9.24928 9H7.36528L10.0893 5.436L10.9053 6.576ZM13.8813 9H11.7573L7.42528 2.928H9.53728L13.8813 9ZM10.3773 5.412L12.0813 2.928H13.9773L11.1933 6.576L10.3773 5.412ZM17.5143 9.24C16.8103 9.24 16.2863 9.076 15.9423 8.748C15.5983 8.412 15.4263 7.94 15.4263 7.332V4.296H14.5383V2.928H15.4263V1.26H17.2983V2.928H18.6303V4.296H17.2983V7.104C17.2983 7.312 17.3423 7.468 17.4303 7.572C17.5183 7.668 17.6663 7.716 17.8743 7.716C17.9943 7.716 18.1263 7.692 18.2703 7.644C18.4143 7.596 18.5343 7.536 18.6303 7.464V9C18.4623 9.088 18.2783 9.148 18.0783 9.18C17.8863 9.22 17.6983 9.24 17.5143 9.24ZM19.9873 9V3.564C20.0993 3.468 20.2993 3.36 20.5873 3.24C20.8753 3.112 21.2033 3 21.5713 2.904C21.9473 2.8 22.3233 2.748 22.6993 2.748C23.0753 2.748 23.3713 2.776 23.5873 2.832C23.8033 2.888 23.9673 2.96 24.0793 3.048V4.356C23.9433 4.324 23.7713 4.3 23.5633 4.284C23.3553 4.268 23.1393 4.26 22.9153 4.26C22.6913 4.252 22.4793 4.252 22.2793 4.26C22.0793 4.268 21.9113 4.284 21.7753 4.308V9H19.9873ZM27.4601 9.18C27.0921 9.18 26.7441 9.144 26.4161 9.072C26.0961 9.008 25.8121 8.9 25.5641 8.748C25.3241 8.588 25.1361 8.376 25.0001 8.112C24.8641 7.84 24.7961 7.504 24.7961 7.104C24.7961 6.728 24.8721 6.4 25.0241 6.12C25.1841 5.84 25.4241 5.624 25.7441 5.472C26.0641 5.32 26.4681 5.244 26.9561 5.244C27.2281 5.244 27.4921 5.272 27.7481 5.328C28.0041 5.384 28.2321 5.46 28.4321 5.556C28.6401 5.652 28.8041 5.756 28.9241 5.868L28.9961 6.732C28.8361 6.636 28.6441 6.56 28.4201 6.504C28.1961 6.448 27.9561 6.42 27.7001 6.42C27.3081 6.42 27.0201 6.48 26.8361 6.6C26.6601 6.712 26.5721 6.892 26.5721 7.14C26.5721 7.292 26.6161 7.428 26.7041 7.548C26.7921 7.668 26.9081 7.76 27.0521 7.824C27.2041 7.888 27.3601 7.92 27.5201 7.92C27.9281 7.92 28.2121 7.892 28.3721 7.836C28.5401 7.78 28.6241 7.668 28.6241 7.5V5.268C28.6241 4.9 28.5041 4.636 28.2641 4.476C28.0321 4.308 27.7001 4.224 27.2681 4.224C26.9161 4.224 26.5601 4.288 26.2001 4.416C25.8481 4.536 25.5601 4.684 25.3361 4.86V3.276C25.5441 3.148 25.8641 3.028 26.2961 2.916C26.7361 2.804 27.2281 2.748 27.7721 2.748C27.9641 2.748 28.1761 2.764 28.4081 2.796C28.6401 2.828 28.8721 2.888 29.1041 2.976C29.3361 3.056 29.5481 3.176 29.7401 3.336C29.9401 3.496 30.1001 3.7 30.2201 3.948C30.3401 4.196 30.4001 4.504 30.4001 4.872L30.3881 7.74C30.3881 8.084 30.2721 8.364 30.0401 8.58C29.8081 8.788 29.4721 8.94 29.0321 9.036C28.6001 9.132 28.0761 9.18 27.4601 9.18Z" fill="black"/>
<path d="M34.7233 9.18C33.6993 9.18 32.9273 8.908 32.4073 8.364C31.8953 7.812 31.6393 7.004 31.6393 5.94C31.6393 4.796 31.8993 3.976 32.4193 3.48C32.9473 2.976 33.7153 2.724 34.7233 2.724C35.4033 2.724 35.9713 2.84 36.4273 3.072C36.8913 3.296 37.2393 3.644 37.4713 4.116C37.7113 4.588 37.8313 5.196 37.8313 5.94C37.8313 7.004 37.5633 7.812 37.0273 8.364C36.4913 8.908 35.7233 9.18 34.7233 9.18ZM34.7233 7.752C35.0193 7.752 35.2633 7.684 35.4553 7.548C35.6553 7.404 35.8033 7.2 35.8993 6.936C36.0033 6.664 36.0553 6.332 36.0553 5.94C36.0553 5.492 36.0033 5.14 35.8993 4.884C35.8033 4.62 35.6553 4.432 35.4553 4.32C35.2553 4.2 35.0113 4.14 34.7233 4.14C34.4193 4.14 34.1713 4.2 33.9793 4.32C33.7873 4.44 33.6433 4.632 33.5473 4.896C33.4593 5.152 33.4153 5.5 33.4153 5.94C33.4153 6.548 33.5193 7.004 33.7273 7.308C33.9433 7.604 34.2753 7.752 34.7233 7.752ZM39.0654 9V3.564C39.1774 3.468 39.3774 3.36 39.6654 3.24C39.9534 3.112 40.2814 3 40.6494 2.904C41.0254 2.8 41.4014 2.748 41.7774 2.748C42.1534 2.748 42.4494 2.776 42.6654 2.832C42.8814 2.888 43.0454 2.96 43.1574 3.048V4.356C43.0214 4.324 42.8494 4.3 42.6414 4.284C42.4334 4.268 42.2174 4.26 41.9934 4.26C41.7694 4.252 41.5574 4.252 41.3574 4.26C41.1574 4.268 40.9894 4.284 40.8534 4.308V9H39.0654ZM46.8913 9.18C46.4193 9.18 45.9833 9.128 45.5833 9.024C45.1913 8.92 44.8513 8.748 44.5633 8.508C44.2753 8.26 44.0473 7.924 43.8793 7.5C43.7193 7.076 43.6393 6.548 43.6393 5.916C43.6393 4.932 43.8793 4.156 44.3593 3.588C44.8473 3.02 45.5753 2.736 46.5433 2.736C46.6713 2.736 46.8393 2.748 47.0473 2.772C47.2553 2.788 47.4713 2.836 47.6953 2.916C47.9193 2.996 48.1193 3.132 48.2953 3.324L47.9353 3.876V0.431999H49.7113V7.416C49.7113 7.712 49.6313 7.972 49.4713 8.196C49.3113 8.412 49.0953 8.592 48.8233 8.736C48.5593 8.88 48.2593 8.988 47.9233 9.06C47.5873 9.14 47.2433 9.18 46.8913 9.18ZM46.9633 7.68C47.2513 7.68 47.4833 7.644 47.6593 7.572C47.8433 7.492 47.9353 7.376 47.9353 7.224V4.428C47.7913 4.348 47.6353 4.288 47.4673 4.248C47.3073 4.2 47.1513 4.176 46.9993 4.176C46.6633 4.176 46.3793 4.232 46.1473 4.344C45.9153 4.456 45.7393 4.644 45.6193 4.908C45.5073 5.172 45.4513 5.528 45.4513 5.976C45.4513 6.328 45.4993 6.632 45.5953 6.888C45.6913 7.136 45.8473 7.332 46.0633 7.476C46.2873 7.612 46.5873 7.68 46.9633 7.68ZM51.3358 9V3.012H53.1238L53.1358 9H51.3358ZM51.2998 2.1V0.719999H53.1478V2.1H51.2998ZM57.5774 9.156C57.1454 9.156 56.7374 9.092 56.3534 8.964C55.9694 8.836 55.6294 8.644 55.3334 8.388C55.0374 8.132 54.8054 7.808 54.6374 7.416C54.4694 7.024 54.3854 6.568 54.3854 6.048C54.3854 5.496 54.4654 5.016 54.6254 4.608C54.7854 4.192 55.0054 3.848 55.2854 3.576C55.5734 3.304 55.9094 3.1 56.2934 2.964C56.6774 2.828 57.1014 2.76 57.5654 2.76C57.8934 2.76 58.2294 2.796 58.5734 2.868C58.9254 2.932 59.2334 3.024 59.4974 3.144V4.68C59.2174 4.552 58.9414 4.448 58.6694 4.368C58.4054 4.28 58.1334 4.236 57.8534 4.236C57.3494 4.236 56.9414 4.364 56.6294 4.62C56.3254 4.868 56.1734 5.276 56.1734 5.844C56.1734 6.444 56.3094 6.896 56.5814 7.2C56.8534 7.504 57.3054 7.656 57.9374 7.656C58.2334 7.656 58.5174 7.604 58.7894 7.5C59.0694 7.396 59.3094 7.288 59.5094 7.176V8.7C59.2294 8.844 58.9374 8.956 58.6334 9.036C58.3294 9.116 57.9774 9.156 57.5774 9.156ZM63.2408 9.24C62.5368 9.24 62.0128 9.076 61.6688 8.748C61.3248 8.412 61.1528 7.94 61.1528 7.332V4.296H60.2648V2.928H61.1528V1.26H63.0248V2.928H64.3568V4.296H63.0248V7.104C63.0248 7.312 63.0688 7.468 63.1568 7.572C63.2448 7.668 63.3928 7.716 63.6008 7.716C63.7208 7.716 63.8528 7.692 63.9968 7.644C64.1408 7.596 64.2608 7.536 64.3568 7.464V9C64.1888 9.088 64.0048 9.148 63.8048 9.18C63.6128 9.22 63.4248 9.24 63.2408 9.24ZM65.7499 9V3.012H67.5379L67.5499 9H65.7499ZM65.7139 2.1V0.719999H67.5619V2.1H65.7139ZM71.8835 9.18C70.8595 9.18 70.0875 8.908 69.5675 8.364C69.0555 7.812 68.7995 7.004 68.7995 5.94C68.7995 4.796 69.0595 3.976 69.5795 3.48C70.1075 2.976 70.8755 2.724 71.8835 2.724C72.5635 2.724 73.1315 2.84 73.5875 3.072C74.0515 3.296 74.3995 3.644 74.6315 4.116C74.8715 4.588 74.9915 5.196 74.9915 5.94C74.9915 7.004 74.7235 7.812 74.1875 8.364C73.6515 8.908 72.8835 9.18 71.8835 9.18ZM71.8835 7.752C72.1795 7.752 72.4235 7.684 72.6155 7.548C72.8155 7.404 72.9635 7.2 73.0595 6.936C73.1635 6.664 73.2155 6.332 73.2155 5.94C73.2155 5.492 73.1635 5.14 73.0595 4.884C72.9635 4.62 72.8155 4.432 72.6155 4.32C72.4155 4.2 72.1715 4.14 71.8835 4.14C71.5795 4.14 71.3315 4.2 71.1395 4.32C70.9475 4.44 70.8035 4.632 70.7075 4.896C70.6195 5.152 70.5755 5.5 70.5755 5.94C70.5755 6.548 70.6795 7.004 70.8875 7.308C71.1035 7.604 71.4355 7.752 71.8835 7.752ZM76.2256 3.444C76.3776 3.364 76.5776 3.284 76.8256 3.204C77.0736 3.116 77.3456 3.04 77.6416 2.976C77.9376 2.912 78.2336 2.86 78.5296 2.82C78.8336 2.78 79.1136 2.76 79.3696 2.76C79.9136 2.76 80.3776 2.832 80.7616 2.976C81.1456 3.112 81.4376 3.336 81.6376 3.648C81.8456 3.96 81.9496 4.384 81.9496 4.92V9H80.1616V5.28C80.1616 5.128 80.1376 4.988 80.0896 4.86C80.0496 4.732 79.9856 4.624 79.8976 4.536C79.8096 4.44 79.6896 4.368 79.5376 4.32C79.3856 4.264 79.2016 4.236 78.9856 4.236C78.8016 4.236 78.6176 4.26 78.4336 4.308C78.2496 4.348 78.1096 4.392 78.0136 4.44V9H76.2256V3.444ZM85.8781 9.18C85.5101 9.18 85.1621 9.144 84.8341 9.072C84.5141 9.008 84.2301 8.9 83.9821 8.748C83.7421 8.588 83.5541 8.376 83.4181 8.112C83.2821 7.84 83.2141 7.504 83.2141 7.104C83.2141 6.728 83.2901 6.4 83.4421 6.12C83.6021 5.84 83.8421 5.624 84.1621 5.472C84.4821 5.32 84.8861 5.244 85.3741 5.244C85.6461 5.244 85.9101 5.272 86.1661 5.328C86.4221 5.384 86.6501 5.46 86.8501 5.556C87.0581 5.652 87.2221 5.756 87.3421 5.868L87.4141 6.732C87.2541 6.636 87.0621 6.56 86.8381 6.504C86.6141 6.448 86.3741 6.42 86.1181 6.42C85.7261 6.42 85.4381 6.48 85.2541 6.6C85.0781 6.712 84.9901 6.892 84.9901 7.14C84.9901 7.292 85.0341 7.428 85.1221 7.548C85.2101 7.668 85.3261 7.76 85.4701 7.824C85.6221 7.888 85.7781 7.92 85.9381 7.92C86.3461 7.92 86.6301 7.892 86.7901 7.836C86.9581 7.78 87.0421 7.668 87.0421 7.5V5.268C87.0421 4.9 86.9221 4.636 86.6821 4.476C86.4501 4.308 86.1181 4.224 85.6861 4.224C85.3341 4.224 84.9781 4.288 84.6181 4.416C84.2661 4.536 83.9781 4.684 83.7541 4.86V3.276C83.9621 3.148 84.2821 3.028 84.7141 2.916C85.1541 2.804 85.6461 2.748 86.1901 2.748C86.3821 2.748 86.5941 2.764 86.8261 2.796C87.0581 2.828 87.2901 2.888 87.5221 2.976C87.7541 3.056 87.9661 3.176 88.1581 3.336C88.3581 3.496 88.5181 3.7 88.6381 3.948C88.7581 4.196 88.8181 4.504 88.8181 4.872L88.8061 7.74C88.8061 8.084 88.6901 8.364 88.4581 8.58C88.2261 8.788 87.8901 8.94 87.4501 9.036C87.0181 9.132 86.4941 9.18 85.8781 9.18ZM90.4053 9V3.564C90.5173 3.468 90.7173 3.36 91.0053 3.24C91.2933 3.112 91.6213 3 91.9893 2.904C92.3653 2.8 92.7413 2.748 93.1173 2.748C93.4933 2.748 93.7893 2.776 94.0053 2.832C94.2213 2.888 94.3853 2.96 94.4973 3.048V4.356C94.3613 4.324 94.1893 4.3 93.9813 4.284C93.7733 4.268 93.5573 4.26 93.3333 4.26C93.1093 4.252 92.8973 4.252 92.6973 4.26C92.4973 4.268 92.3293 4.284 92.1933 4.308V9H90.4053ZM96.8581 11.352C96.6581 11.352 96.4621 11.332 96.2701 11.292C96.0781 11.252 95.9141 11.2 95.7781 11.136V9.684C95.9061 9.732 96.0261 9.764 96.1381 9.78C96.2501 9.804 96.3661 9.816 96.4861 9.816C96.6861 9.816 96.8581 9.768 97.0021 9.672C97.1541 9.584 97.2781 9.428 97.3741 9.204C97.4701 8.988 97.5461 8.692 97.6021 8.316L97.6381 9.336L95.0341 2.928H97.0861L98.4661 7.188H98.2861L99.6541 2.928H101.574L99.1861 9.096C98.9701 9.656 98.7341 10.1 98.4781 10.428C98.2301 10.756 97.9701 10.992 97.6981 11.136C97.4261 11.28 97.1461 11.352 96.8581 11.352Z" fill="url(#paint0_linear_17_4)"/>
<defs>
<linearGradient id="paint0_linear_17_4" x1="46" y1="11" x2="22.5" y2="11" gradientUnits="userSpaceOnUse">
<stop stop-color="#38BDF8"/>
<stop offset="1" stop-color="#38BDF8" stop-opacity="0"/>
</linearGradient>
</defs>
</svg>
