<svg width="44" height="52" viewBox="0 0 44 52" fill="none" xmlns="http://www.w3.org/2000/svg">
<rect y="7" width="37" height="45" fill="#38BDF8"/>
<path d="M3.312 38L9.36 21.992H13.608L19.272 38H15.288L10.176 22.904L12.072 22.736L6.984 38H3.312ZM6.72 34.544L7.512 31.688H14.784L15.144 34.544H6.72ZM25.3358 38.33C24.6611 38.33 24.0231 38.264 23.4218 38.132C22.8351 38.0147 22.3144 37.8167 21.8598 37.538C21.4198 37.2447 21.0751 36.856 20.8258 36.372C20.5764 35.8733 20.4518 35.2573 20.4518 34.524C20.4518 33.8347 20.5911 33.2333 20.8698 32.72C21.1631 32.2067 21.6031 31.8107 22.1898 31.532C22.7764 31.2533 23.5171 31.114 24.4118 31.114C24.9104 31.114 25.3944 31.1653 25.8638 31.268C26.3331 31.3707 26.7511 31.51 27.1178 31.686C27.4991 31.862 27.7998 32.0527 28.0198 32.258L28.1518 33.842C27.8584 33.666 27.5064 33.5267 27.0958 33.424C26.6851 33.3213 26.2451 33.27 25.7758 33.27C25.0571 33.27 24.5291 33.38 24.1918 33.6C23.8691 33.8053 23.7078 34.1353 23.7078 34.59C23.7078 34.8687 23.7884 35.118 23.9498 35.338C24.1111 35.558 24.3238 35.7267 24.5878 35.844C24.8664 35.9613 25.1524 36.02 25.4458 36.02C26.1938 36.02 26.7144 35.9687 27.0078 35.866C27.3158 35.7633 27.4698 35.558 27.4698 35.25V31.158C27.4698 30.4833 27.2498 29.9993 26.8098 29.706C26.3844 29.398 25.7758 29.244 24.9838 29.244C24.3384 29.244 23.6858 29.3613 23.0258 29.596C22.3804 29.816 21.8524 30.0873 21.4418 30.41V27.506C21.8231 27.2713 22.4098 27.0513 23.2018 26.846C24.0084 26.6407 24.9104 26.538 25.9078 26.538C26.2598 26.538 26.6484 26.5673 27.0738 26.626C27.4991 26.6847 27.9244 26.7947 28.3498 26.956C28.7751 27.1027 29.1638 27.3227 29.5158 27.616C29.8824 27.9093 30.1758 28.2833 30.3958 28.738C30.6158 29.1927 30.7258 29.7573 30.7258 30.432L30.7037 35.69C30.7037 36.3207 30.4911 36.834 30.0658 37.23C29.6404 37.6113 29.0244 37.89 28.2178 38.066C27.4258 38.242 26.4651 38.33 25.3358 38.33Z" fill="white"/>
<path d="M6.35556 0L0 7H36.1778V52L44 44.5V0H6.35556Z" fill="url(#paint0_linear_28_12)"/>
<defs>
<linearGradient id="paint0_linear_28_12" x1="0" y1="52" x2="72" y2="52" gradientUnits="userSpaceOnUse">
<stop/>
<stop offset="1" stop-color="#D9D9D9" stop-opacity="0"/>
</linearGradient>
</defs>
</svg>
